<svg xmlns="http://www.w3.org/2000/svg" xmlns:xlink="http://www.w3.org/1999/xlink" version="1.0" x="0" y="0" width="2400" height="349.2603644109393" viewBox="44.97349533081055 106.80549606323243 250.0530093383789 36.38900215148926" preserveAspectRatio="xMidYMid meet" color-interpolation-filters="sRGB"><g><defs><linearGradient id="92" x1="0%" y1="0%" x2="100%" y2="0%"><stop offset="0%" stop-color="#fa71cd"></stop> <stop offset="100%" stop-color="#9b59b6"></stop></linearGradient><linearGradient id="93" x1="0%" y1="0%" x2="100%" y2="0%"><stop offset="0%" stop-color="#f9d423"></stop> <stop offset="100%" stop-color="#f83600"></stop></linearGradient><linearGradient id="94" x1="0%" y1="0%" x2="100%" y2="0%"><stop offset="0%" stop-color="#0064d2"></stop> <stop offset="100%" stop-color="#1cb0f6"></stop></linearGradient><linearGradient id="95" x1="0%" y1="0%" x2="100%" y2="0%"><stop offset="0%" stop-color="#f00978"></stop> <stop offset="100%" stop-color="#3f51b1"></stop></linearGradient><linearGradient id="96" x1="0%" y1="0%" x2="100%" y2="0%"><stop offset="0%" stop-color="#7873f5"></stop> <stop offset="100%" stop-color="#ec77ab"></stop></linearGradient><linearGradient id="97" x1="0%" y1="0%" x2="100%" y2="0%"><stop offset="0%" stop-color="#f9d423"></stop> <stop offset="100%" stop-color="#e14fad"></stop></linearGradient><linearGradient id="98" x1="0%" y1="0%" x2="100%" y2="0%"><stop offset="0%" stop-color="#009efd"></stop> <stop offset="100%" stop-color="#2af598"></stop></linearGradient><linearGradient id="99" x1="0%" y1="0%" x2="100%" y2="0%"><stop offset="0%" stop-color="#ffcc00"></stop> <stop offset="100%" stop-color="#00b140"></stop></linearGradient><linearGradient id="100" x1="0%" y1="0%" x2="100%" y2="0%"><stop offset="0%" stop-color="#d51007"></stop> <stop offset="100%" stop-color="#ff8177"></stop></linearGradient><linearGradient id="102" x1="0%" y1="0%" x2="100%" y2="0%"><stop offset="0%" stop-color="#a2b6df"></stop> <stop offset="100%" stop-color="#0c3483"></stop></linearGradient><linearGradient id="103" x1="0%" y1="0%" x2="100%" y2="0%"><stop offset="0%" stop-color="#7ac5d8"></stop> <stop offset="100%" stop-color="#eea2a2"></stop></linearGradient><linearGradient id="104" x1="0%" y1="0%" x2="100%" y2="0%"><stop offset="0%" stop-color="#00ecbc"></stop> <stop offset="100%" stop-color="#007adf"></stop></linearGradient><linearGradient id="105" x1="0%" y1="0%" x2="100%" y2="0%"><stop offset="0%" stop-color="#b88746"></stop> <stop offset="100%" stop-color="#fdf5a6"></stop></linearGradient></defs><g fill="#e9cdb3" class="icon-text-wrapper icon-svg-group iconsvg" transform="translate(47.42499542236328,109.2569990158081)"><g class="iconsvg-imagesvg" transform="translate(0,1.1429691314697266)"><g><rect fill="#e9cdb3" fill-opacity="0" stroke-width="2" x="0" y="0" width="60" height="29.200064240141327" class="image-rect"></rect> <svg filter="url(#colors7616979587)" x="0" y="0" width="60" height="29.200064240141327" filtersec="colorsf7400589371" class="image-svg-svg primary" style="overflow: visible;"><svg xmlns="http://www.w3.org/2000/svg" xmlns:xlink="http://www.w3.org/1999/xlink" version="1.1" x="0px" y="0px" viewBox="0.29700005054473877 1.4290962219238281 4.405267238616943 2.1439037322998047" enable-background="new 0 0 5 5" xml:space="preserve"><g><path d="M3.889,1.886C3.83,1.947,3.723,2.067,3.594,2.217C3.367,1.897,2.988,1.386,2.941,1.432   c-0.129,0.128-0.471,0.524-0.789,0.9C1.961,2.084,1.775,1.856,1.748,1.886c-0.27,0.269-1.451,1.687-1.451,1.687   s1.189-0.938,1.521-1.216c0.037,0.021,0.111,0.07,0.193,0.137c0.041,0.029,0.086,0.066,0.133,0.1   c0.166,0.128,0.342,0.269,0.416,0.321c0.014,0.014-0.123-0.189-0.287-0.421C2.57,2.258,2.871,2.018,3.012,1.897   c0.084,0.046,0.326,0.235,0.521,0.389C3.086,2.799,2.438,3.572,2.438,3.572s1.189-0.938,1.525-1.216   c0.123,0.07,0.604,0.459,0.738,0.558C4.738,2.939,3.953,1.819,3.889,1.886z"></path></g></svg></svg> <defs><filter id="colors7616979587"><feColorMatrix type="matrix" values="0 0 0 0 0.91015625  0 0 0 0 0.80078125  0 0 0 0 0.69921875  0 0 0 1 0" class="icon-feColorMatrix "></feColorMatrix></filter> <filter id="colorsf7400589371"><feColorMatrix type="matrix" values="0 0 0 0 0.99609375  0 0 0 0 0.99609375  0 0 0 0 0.99609375  0 0 0 1 0" class="icon-fecolormatrix"></feColorMatrix></filter> <filter id="colorsb4456182781"><feColorMatrix type="matrix" values="0 0 0 0 0  0 0 0 0 0  0 0 0 0 0  0 0 0 1 0" class="icon-fecolormatrix"></feColorMatrix></filter></defs></g></g> <g transform="translate(67,0)"><g fill-rule="" class="tp-name iconsvg-namesvg" transform="translate(0,0)"><g transform="scale(1)"><g><path d="M9.27-16.97L9.27-16.97Q11.22-16.97 12.86-16.33 14.51-15.7 15.71-14.55 16.91-13.4 17.58-11.8 18.26-10.19 18.26-8.25L18.26-8.25Q18.26-7.14 18-6.07 17.75-5 17.25-4.05 16.76-3.1 16.03-2.29 15.31-1.48 14.39-0.89 13.46-0.3 12.35 0.03 11.23 0.36 9.94 0.36L9.94 0.36Q7.99 0.36 6.35-0.26 4.7-0.88 3.5-2.02 2.3-3.17 1.63-4.77 0.95-6.36 0.95-8.32L0.95-8.32Q0.95-9.43 1.21-10.5 1.47-11.57 1.96-12.53 2.46-13.5 3.17-14.31 3.89-15.12 4.81-15.71 5.74-16.3 6.86-16.63 7.98-16.97 9.27-16.97ZM9.94-0.69L9.94-0.69Q11.23-0.69 12.3-1.15 13.37-1.62 14.14-2.5 14.92-3.39 15.35-4.66 15.78-5.93 15.78-7.55L15.78-7.55Q15.78-9.34 15.37-10.87 14.95-12.4 14.14-13.53 13.32-14.65 12.11-15.28 10.89-15.92 9.27-15.92L9.27-15.92Q7.98-15.92 6.91-15.46 5.84-15 5.07-14.13 4.29-13.25 3.86-11.99 3.43-10.72 3.43-9.1L3.43-9.1Q3.43-7.32 3.84-5.78 4.25-4.24 5.06-3.11 5.88-1.98 7.1-1.33 8.32-0.69 9.94-0.69ZM24.65-6.12L24.65-6.12Q24.09-6.12 23.7-6.08 23.31-6.04 23.1-6L23.1-6 23.1-4.79Q23.1-3.79 23.1-3.12 23.11-2.44 23.13-1.99 23.14-1.54 23.16-1.26 23.17-0.99 23.19-0.79L23.19-0.79Q23.49-0.71 23.84-0.69 24.18-0.66 24.38-0.66L24.38-0.66Q25.98-0.66 26.71-1.37 27.44-2.07 27.44-3.55L27.44-3.55Q27.44-4.11 27.26-4.58 27.09-5.06 26.74-5.4 26.39-5.74 25.87-5.93 25.34-6.12 24.65-6.12ZM23.1-11.68L23.1-6.91Q23.33-6.88 23.52-6.87 23.7-6.87 23.9-6.87L23.9-6.87Q25.08-6.87 25.77-7.52 26.46-8.17 26.46-9.46L26.46-9.46Q26.46-9.98 26.32-10.43 26.18-10.87 25.92-11.18 25.66-11.5 25.27-11.67 24.88-11.85 24.38-11.85L24.38-11.85Q24.04-11.85 23.81-11.82 23.57-11.79 23.41-11.76L23.41-11.76Q23.23-11.72 23.1-11.68L23.1-11.68ZM20.74-12.49L20.74-12.53Q20.96-12.52 21.19-12.52L21.19-12.52Q21.39-12.51 21.62-12.51 21.85-12.51 22.07-12.51L22.07-12.51Q22.43-12.51 23.07-12.56 23.71-12.6 24.67-12.6L24.67-12.6Q25.52-12.6 26.25-12.4 26.97-12.19 27.5-11.81 28.03-11.43 28.33-10.87 28.62-10.31 28.62-9.6L28.62-9.6Q28.62-8.99 28.46-8.52 28.29-8.05 27.97-7.7 27.66-7.34 27.22-7.1 26.77-6.87 26.24-6.73L26.24-6.73Q27.02-6.61 27.66-6.34 28.3-6.07 28.75-5.67 29.21-5.27 29.45-4.73 29.7-4.19 29.7-3.53L29.7-3.53Q29.7-1.69 28.38-0.77 27.07 0.14 24.46 0.14L24.46 0.14Q24.18 0.14 23.77 0.12 23.35 0.09 22.91 0.07 22.46 0.05 22.04 0.02 21.63 0 21.35 0L21.35 0 20.74 0 20.74-0.05Q20.82-0.29 20.88-0.67 20.95-1.06 20.99-1.62 21.03-2.19 21.05-2.97 21.07-3.75 21.07-4.79L21.07-4.79 21.07-7.73Q21.07-8.77 21.05-9.55 21.03-10.33 20.99-10.9 20.95-11.47 20.88-11.86 20.82-12.24 20.74-12.49L20.74-12.49ZM32.08-12.51L32.08-12.51Q33.22-12.51 34.42-12.51 35.62-12.52 36.64-12.54 37.67-12.56 38.41-12.58 39.14-12.6 39.38-12.65L39.38-12.65 38.92-11.39Q38.61-11.47 38.21-11.54L38.21-11.54Q37.86-11.6 37.37-11.65 36.88-11.71 36.22-11.71L36.22-11.71Q35.99-11.71 35.69-11.69 35.39-11.67 35.11-11.65L35.11-11.65Q34.78-11.62 34.44-11.6L34.44-11.6 34.44-7Q35.39-7.02 36.14-7.05 36.9-7.09 37.43-7.14L37.43-7.14Q38.06-7.19 38.54-7.27L38.54-7.27 38.26-5.89Q37.62-5.97 36.97-6.03L36.97-6.03Q36.41-6.09 35.73-6.13 35.06-6.17 34.44-6.17L34.44-6.17 34.44-0.88Q35.53-0.88 36.43-0.97 37.34-1.06 38.02-1.16L38.02-1.16Q38.81-1.29 39.45-1.45L39.45-1.45 39.18 0.07Q39 0.06 38.61 0.04 38.22 0.02 37.8 0.02 37.38 0.01 37 0.01 36.63 0 36.49 0L36.49 0 32.08 0 32.08-0.05Q32.16-0.29 32.23-0.67 32.29-1.06 32.33-1.62 32.37-2.19 32.4-2.97 32.42-3.75 32.42-4.79L32.42-4.79 32.42-7.73Q32.42-8.77 32.4-9.55 32.37-10.32 32.33-10.89 32.29-11.45 32.23-11.83 32.16-12.22 32.08-12.46L32.08-12.46 32.08-12.51ZM44.4-11.71L44.4-6.07Q44.64-6.04 44.87-6.02 45.11-6 45.33-6L45.33-6Q46.79-6 47.54-6.78 48.29-7.56 48.29-9.12L48.29-9.12Q48.29-10.4 47.69-11.15 47.09-11.89 45.93-11.89L45.93-11.89Q45.56-11.89 45.27-11.86 44.99-11.83 44.79-11.8L44.79-11.8Q44.57-11.75 44.4-11.71L44.4-11.71ZM48.64-1.86L46.18-5.32Q45.95-5.28 45.72-5.28 45.5-5.27 45.26-5.27L45.26-5.27Q45.08-5.27 44.86-5.28 44.64-5.29 44.4-5.32L44.4-5.32 44.4-4.75Q44.4-3.71 44.43-2.94 44.45-2.16 44.49-1.61 44.53-1.05 44.59-0.67 44.65-0.29 44.73-0.05L44.73-0.05 44.73 0 42.04 0 42.04-0.05Q42.12-0.29 42.19-0.67 42.25-1.06 42.29-1.62 42.33-2.19 42.36-2.97 42.38-3.75 42.38-4.79L42.38-4.79 42.38-7.73Q42.38-8.77 42.36-9.55 42.33-10.32 42.29-10.89 42.25-11.45 42.19-11.83 42.12-12.22 42.04-12.46L42.04-12.46 42.04-12.51Q42.23-12.5 42.44-12.49L42.44-12.49Q42.61-12.47 42.83-12.47 43.04-12.46 43.26-12.46L43.26-12.46Q43.64-12.46 44.37-12.53 45.1-12.6 46.09-12.6L46.09-12.6Q47.09-12.6 47.91-12.36 48.73-12.11 49.32-11.66 49.91-11.21 50.23-10.55 50.55-9.9 50.55-9.1L50.55-9.1Q50.55-8.47 50.37-7.95 50.2-7.44 49.88-7.02 49.57-6.61 49.14-6.3 48.71-5.98 48.19-5.75L48.19-5.75 50.62-2.32Q50.93-1.9 51.25-1.51 51.57-1.13 51.86-0.83 52.15-0.52 52.41-0.32 52.67-0.12 52.84-0.05L52.84-0.05 52.84 0 49.79 0Q49.79-0.1 49.65-0.37 49.5-0.63 49.31-0.91 49.12-1.2 48.92-1.47 48.73-1.73 48.64-1.86L48.64-1.86ZM57.84-6.12L57.84-6.12Q57.28-6.12 56.9-6.08 56.51-6.04 56.3-6L56.3-6 56.3-4.79Q56.3-3.79 56.3-3.12 56.31-2.44 56.32-1.99 56.34-1.54 56.35-1.26 56.37-0.99 56.39-0.79L56.39-0.79Q56.69-0.71 57.03-0.69 57.38-0.66 57.58-0.66L57.58-0.66Q59.18-0.66 59.91-1.37 60.64-2.07 60.64-3.55L60.64-3.55Q60.64-4.11 60.46-4.58 60.29-5.06 59.94-5.4 59.59-5.74 59.07-5.93 58.54-6.12 57.84-6.12ZM56.3-11.68L56.3-6.91Q56.53-6.88 56.71-6.87 56.9-6.87 57.1-6.87L57.1-6.87Q58.27-6.87 58.97-7.52 59.66-8.17 59.66-9.46L59.66-9.46Q59.66-9.98 59.52-10.43 59.38-10.87 59.12-11.18 58.86-11.5 58.47-11.67 58.08-11.85 57.58-11.85L57.58-11.85Q57.24-11.85 57.01-11.82 56.77-11.79 56.61-11.76L56.61-11.76Q56.42-11.72 56.3-11.68L56.3-11.68ZM53.93-12.49L53.93-12.53Q54.15-12.52 54.39-12.52L54.39-12.52Q54.59-12.51 54.82-12.51 55.05-12.51 55.27-12.51L55.27-12.51Q55.63-12.51 56.27-12.56 56.91-12.6 57.87-12.6L57.87-12.6Q58.72-12.6 59.44-12.4 60.17-12.19 60.7-11.81 61.23-11.43 61.53-10.87 61.82-10.31 61.82-9.6L61.82-9.6Q61.82-8.99 61.65-8.52 61.49-8.05 61.17-7.7 60.86-7.34 60.42-7.1 59.97-6.87 59.44-6.73L59.44-6.73Q60.22-6.61 60.86-6.34 61.5-6.07 61.95-5.67 62.4-5.27 62.65-4.73 62.89-4.19 62.89-3.53L62.89-3.53Q62.89-1.69 61.58-0.77 60.26 0.14 57.66 0.14L57.66 0.14Q57.38 0.14 56.96 0.12 56.55 0.09 56.1 0.07 55.66 0.05 55.24 0.02 54.83 0 54.55 0L54.55 0 53.93 0 53.93-0.05Q54.02-0.29 54.08-0.67 54.14-1.06 54.18-1.62 54.22-2.19 54.25-2.97 54.27-3.75 54.27-4.79L54.27-4.79 54.27-7.73Q54.27-8.77 54.25-9.55 54.22-10.33 54.18-10.9 54.14-11.47 54.08-11.86 54.02-12.24 53.93-12.49L53.93-12.49ZM65.28-12.51L65.28-12.51Q66.42-12.51 67.62-12.51 68.82-12.52 69.84-12.54 70.86-12.56 71.6-12.58 72.34-12.6 72.57-12.65L72.57-12.65 72.12-11.39Q71.81-11.47 71.41-11.54L71.41-11.54Q71.06-11.6 70.57-11.65 70.07-11.71 69.42-11.71L69.42-11.71Q69.19-11.71 68.89-11.69 68.58-11.67 68.3-11.65L68.3-11.65Q67.98-11.62 67.64-11.6L67.64-11.6 67.64-7Q68.58-7.02 69.34-7.05 70.1-7.09 70.63-7.14L70.63-7.14Q71.26-7.19 71.74-7.27L71.74-7.27 71.46-5.89Q70.82-5.97 70.17-6.03L70.17-6.03Q69.61-6.09 68.93-6.13 68.26-6.17 67.64-6.17L67.64-6.17 67.64-0.88Q68.72-0.88 69.63-0.97 70.54-1.06 71.21-1.16L71.21-1.16Q72-1.29 72.64-1.45L72.64-1.45 72.38 0.07Q72.2 0.06 71.81 0.04 71.42 0.02 71 0.02 70.57 0.01 70.2 0.01 69.83 0 69.69 0L69.69 0 65.28 0 65.28-0.05Q65.36-0.29 65.42-0.67 65.49-1.06 65.53-1.62 65.57-2.19 65.59-2.97 65.62-3.75 65.62-4.79L65.62-4.79 65.62-7.73Q65.62-8.77 65.59-9.55 65.57-10.32 65.53-10.89 65.49-11.45 65.42-11.83 65.36-12.22 65.28-12.46L65.28-12.46 65.28-12.51ZM77.6-11.71L77.6-6.07Q77.83-6.04 78.07-6.02 78.31-6 78.53-6L78.53-6Q79.99-6 80.74-6.78 81.49-7.56 81.49-9.12L81.49-9.12Q81.49-10.4 80.89-11.15 80.29-11.89 79.13-11.89L79.13-11.89Q78.75-11.89 78.47-11.86 78.18-11.83 77.99-11.8L77.99-11.8Q77.76-11.75 77.6-11.71L77.6-11.71ZM81.84-1.86L79.38-5.32Q79.15-5.28 78.92-5.28 78.7-5.27 78.46-5.27L78.46-5.27Q78.28-5.27 78.06-5.28 77.83-5.29 77.6-5.32L77.6-5.32 77.6-4.75Q77.6-3.71 77.62-2.94 77.65-2.16 77.69-1.61 77.73-1.05 77.79-0.67 77.85-0.29 77.93-0.05L77.93-0.05 77.93 0 75.24 0 75.24-0.05Q75.32-0.29 75.38-0.67 75.45-1.06 75.49-1.62 75.53-2.19 75.55-2.97 75.58-3.75 75.58-4.79L75.58-4.79 75.58-7.73Q75.58-8.77 75.55-9.55 75.53-10.32 75.49-10.89 75.45-11.45 75.38-11.83 75.32-12.22 75.24-12.46L75.24-12.46 75.24-12.51Q75.43-12.5 75.64-12.49L75.64-12.49Q75.81-12.47 76.02-12.47 76.24-12.46 76.46-12.46L76.46-12.46Q76.83-12.46 77.57-12.53 78.3-12.6 79.29-12.6L79.29-12.6Q80.29-12.6 81.11-12.36 81.93-12.11 82.52-11.66 83.11-11.21 83.43-10.55 83.75-9.9 83.75-9.1L83.75-9.1Q83.75-8.47 83.57-7.95 83.4-7.44 83.08-7.02 82.77-6.61 82.34-6.3 81.91-5.98 81.38-5.75L81.38-5.75 83.82-2.32Q84.13-1.9 84.45-1.51 84.77-1.13 85.06-0.83 85.35-0.52 85.61-0.32 85.86-0.12 86.04-0.05L86.04-0.05 86.04 0 82.99 0Q82.99-0.1 82.84-0.37 82.7-0.63 82.51-0.91 82.31-1.2 82.12-1.47 81.93-1.73 81.84-1.86L81.84-1.86ZM98.57-2.07L98.57-1.41Q98.57-1.26 98.54-1.15 98.51-1.05 98.41-0.98L98.41-0.98Q97.58-0.4 96.48-0.05 95.38 0.29 93.9 0.29L93.9 0.29Q92.24 0.29 90.87-0.19 89.51-0.66 88.53-1.52 87.55-2.37 87.01-3.57 86.47-4.77 86.47-6.23L86.47-6.23Q86.47-7.47 86.96-8.65 87.46-9.82 88.39-10.73 89.32-11.64 90.65-12.18 91.98-12.73 93.66-12.73L93.66-12.73Q94.53-12.73 95.31-12.63 96.09-12.53 96.81-12.32L96.81-12.32 97.69-10.23 97.57-10.15Q96.87-10.95 95.88-11.42 94.89-11.89 93.61-11.89L93.61-11.89Q92.57-11.89 91.69-11.55 90.81-11.22 90.16-10.57 89.52-9.93 89.16-8.98 88.8-8.04 88.8-6.84L88.8-6.84Q88.8-5.49 89.13-4.34 89.47-3.19 90.15-2.34 90.82-1.5 91.82-1.02 92.81-0.55 94.14-0.55L94.14-0.55Q95.28-0.55 95.91-0.84 96.55-1.13 96.55-1.5L96.55-1.5 96.55-2.12Q96.55-2.72 96.53-3.17 96.52-3.61 96.5-3.93 96.48-4.25 96.43-4.48 96.39-4.71 96.34-4.91L96.34-4.91 96.34-4.96 98.81-4.96 98.81-4.91Q98.76-4.74 98.71-4.49 98.66-4.25 98.63-3.91 98.6-3.57 98.59-3.12 98.57-2.66 98.57-2.07L98.57-2.07ZM100.9-1.02L100.9-1.02Q100.9-1.28 101-1.51 101.1-1.73 101.26-1.9 101.43-2.07 101.66-2.17 101.89-2.27 102.14-2.27L102.14-2.27Q102.41-2.27 102.64-2.17 102.86-2.07 103.03-1.9 103.2-1.73 103.3-1.51 103.4-1.28 103.4-1.02L103.4-1.02Q103.4-0.49 103.04-0.13 102.68 0.23 102.14 0.23L102.14 0.23Q101.89 0.23 101.66 0.13 101.43 0.03 101.26-0.13 101.1-0.3 101-0.53 100.9-0.76 100.9-1.02ZM108.81-15.69L108.81-15.69Q108.79-14.38 108.76-13.16L108.76-13.16Q108.75-12.64 108.75-12.09 108.74-11.54 108.73-11.01 108.73-10.48 108.72-10 108.72-9.52 108.72-9.15L108.72-9.15Q108.72-8.37 108.73-7.26 108.74-6.16 108.76-4.99 108.77-3.83 108.81-2.76 108.84-1.69 108.89-0.98L108.89-0.98Q109.05-0.95 109.33-0.93 109.6-0.9 109.9-0.88 110.21-0.86 110.5-0.85 110.79-0.84 110.99-0.84L110.99-0.84Q111.8-0.84 112.66-0.95 113.51-1.06 114.31-1.36 115.11-1.66 115.81-2.19 116.51-2.72 117.04-3.56 117.57-4.4 117.87-5.58 118.18-6.76 118.18-8.37L118.18-8.37Q118.18-10.15 117.75-11.54 117.32-12.93 116.48-13.88 115.65-14.84 114.42-15.33 113.2-15.83 111.6-15.83L111.6-15.83Q111.29-15.83 110.89-15.81 110.5-15.79 110.11-15.77 109.72-15.76 109.37-15.73 109.03-15.7 108.81-15.69ZM106.26-16.69L106.26-16.73Q106.53-16.72 106.76-16.71L106.76-16.71Q106.96-16.7 107.17-16.69 107.38-16.69 107.51-16.69L107.51-16.69Q107.73-16.69 108.25-16.71 108.76-16.73 109.43-16.76 110.09-16.78 110.81-16.8 111.52-16.83 112.15-16.83L112.15-16.83Q113.84-16.83 115.36-16.41 116.89-15.99 118.04-15.03 119.19-14.08 119.86-12.53 120.54-10.98 120.54-8.73L120.54-8.73Q120.54-7.11 120.18-5.82 119.83-4.53 119.19-3.54 118.55-2.55 117.66-1.84 116.77-1.14 115.69-0.69 114.62-0.23 113.39-0.02 112.17 0.19 110.87 0.19L110.87 0.19Q110.4 0.19 109.75 0.16 109.09 0.13 108.43 0.09 107.76 0.06 107.17 0.03 106.59 0 106.26 0L106.26 0 106.26-0.05Q106.33-0.29 106.4-0.65 106.46-1.01 106.51-1.55 106.55-2.08 106.58-2.82 106.6-3.56 106.6-4.55L106.6-4.55 106.6-12.12Q106.6-13.11 106.58-13.86 106.55-14.62 106.51-15.16 106.46-15.7 106.4-16.07 106.33-16.44 106.26-16.69L106.26-16.69ZM130.72-3L130.27-3.93Q129.95-3.93 129.48-3.93 129.01-3.93 128.45-3.93 127.89-3.93 127.3-3.93 126.71-3.93 126.17-3.93 125.64-3.92 125.19-3.92 124.75-3.91 124.51-3.91L124.51-3.91 124.08-3Q123.8-2.44 123.6-2.03 123.4-1.62 123.27-1.3 123.15-0.99 123.09-0.76 123.03-0.54 123.03-0.34L123.03-0.34Q123.03-0.21 123.04-0.15 123.05-0.08 123.08-0.05L123.08-0.05 123.08 0 121.03 0 121.03-0.05Q121.11-0.13 121.28-0.4 121.46-0.67 121.69-1.07 121.91-1.47 122.17-1.97 122.44-2.47 122.69-3L122.69-3 127.44-12.8 128.31-12.8 132.97-3Q133.23-2.44 133.51-1.93 133.78-1.42 134.01-1.02 134.25-0.62 134.42-0.35 134.6-0.09 134.65-0.05L134.65-0.05 134.65 0 131.67 0Q131.7-0.09 131.7-0.17 131.7-0.24 131.7-0.34L131.7-0.34Q131.7-0.59 131.59-0.95 131.48-1.31 131.32-1.69 131.16-2.07 130.99-2.42 130.83-2.77 130.72-3L130.72-3ZM127.44-10.01L124.96-4.84 125.67-4.84Q126.16-4.84 126.71-4.85 127.26-4.85 127.82-4.85 128.38-4.85 128.91-4.86 129.43-4.86 129.85-4.86L129.85-4.86 127.44-10.01ZM138.62-4.79L138.62-11.65Q137.56-11.65 136.7-11.55 135.83-11.46 135.2-11.36L135.2-11.36Q134.48-11.23 133.9-11.08L133.9-11.08 134.13-12.58Q134.3-12.56 134.7-12.54 135.1-12.53 135.53-12.53 135.97-12.52 136.36-12.51 136.75-12.51 136.9-12.51L136.9-12.51 142.4-12.51Q142.54-12.51 142.92-12.51 143.3-12.52 143.73-12.53 144.16-12.53 144.56-12.54 144.95-12.56 145.13-12.58L145.13-12.58 145.36-11.08Q144.8-11.23 144.08-11.36L144.08-11.36Q143.46-11.46 142.6-11.55 141.73-11.65 140.65-11.65L140.65-11.65 140.65-4.79Q140.65-3.75 140.67-2.97 140.69-2.19 140.73-1.62 140.77-1.06 140.83-0.67 140.89-0.29 140.97-0.05L140.97-0.05 140.97 0 138.28 0 138.28-0.05Q138.37-0.29 138.42-0.67 138.48-1.06 138.53-1.62 138.58-2.19 138.6-2.97 138.62-3.75 138.62-4.79L138.62-4.79ZM147.31-4.79L147.31-7.73Q147.31-8.77 147.29-9.55 147.27-10.32 147.23-10.89 147.19-11.45 147.12-11.83 147.06-12.22 146.98-12.46L146.98-12.46 146.98-12.51 149.68-12.51 149.68-12.46Q149.59-12.22 149.53-11.83 149.47-11.45 149.43-10.89 149.39-10.32 149.36-9.55 149.34-8.77 149.34-7.73L149.34-7.73 149.34-4.79Q149.34-3.75 149.36-2.97 149.39-2.19 149.43-1.62 149.47-1.06 149.53-0.67 149.59-0.29 149.68-0.05L149.68-0.05 149.68 0 146.98 0 146.98-0.05Q147.06-0.29 147.12-0.67 147.19-1.06 147.23-1.62 147.27-2.19 147.29-2.97 147.31-3.75 147.31-4.79L147.31-4.79ZM164.09-7.73L164.09 0.16 163.64 0.16 154.39-8.94 154.39-4.79Q154.39-3.75 154.4-2.97 154.41-2.19 154.44-1.62 154.47-1.06 154.52-0.67 154.57-0.29 154.66-0.05L154.66-0.05 154.66 0 152.91 0 152.91-0.05Q152.99-0.29 153.05-0.67 153.11-1.06 153.14-1.62 153.18-2.19 153.19-2.97 153.2-3.75 153.2-4.79L153.2-4.79 153.2-7.73Q153.2-8.77 153.19-9.55 153.18-10.32 153.14-10.89 153.11-11.45 153.05-11.83 152.99-12.22 152.91-12.46L152.91-12.46 152.91-12.51 153.63-12.51 162.89-3.36 162.89-7.73Q162.89-8.77 162.88-9.55 162.87-10.32 162.84-10.89 162.81-11.45 162.77-11.83 162.72-12.22 162.64-12.46L162.64-12.46 162.64-12.51 164.37-12.51 164.37-12.46Q164.29-12.22 164.24-11.83 164.19-11.45 164.15-10.89 164.12-10.32 164.1-9.55 164.09-8.77 164.09-7.73L164.09-7.73ZM178.86-2.07L178.86-1.41Q178.86-1.26 178.83-1.15 178.8-1.05 178.7-0.98L178.7-0.98Q177.87-0.4 176.77-0.05 175.67 0.29 174.19 0.29L174.19 0.29Q172.53 0.29 171.16-0.19 169.8-0.66 168.82-1.52 167.84-2.37 167.3-3.57 166.76-4.77 166.76-6.23L166.76-6.23Q166.76-7.47 167.25-8.65 167.75-9.82 168.68-10.73 169.61-11.64 170.94-12.18 172.27-12.73 173.95-12.73L173.95-12.73Q174.82-12.73 175.6-12.63 176.38-12.53 177.1-12.32L177.1-12.32 177.98-10.23 177.86-10.15Q177.16-10.95 176.17-11.42 175.18-11.89 173.9-11.89L173.9-11.89Q172.86-11.89 171.98-11.55 171.1-11.22 170.45-10.57 169.81-9.93 169.45-8.98 169.09-8.04 169.09-6.84L169.09-6.84Q169.09-5.49 169.42-4.34 169.76-3.19 170.44-2.34 171.11-1.5 172.1-1.02 173.1-0.55 174.43-0.55L174.43-0.55Q175.57-0.55 176.2-0.84 176.83-1.13 176.83-1.5L176.83-1.5 176.83-2.12Q176.83-2.72 176.82-3.17 176.81-3.61 176.79-3.93 176.77-4.25 176.72-4.48 176.68-4.71 176.63-4.91L176.63-4.91 176.63-4.96 179.1-4.96 179.1-4.91Q179.05-4.74 179-4.49 178.95-4.25 178.92-3.91 178.89-3.57 178.88-3.12 178.86-2.66 178.86-2.07L178.86-2.07Z" transform="translate(-0.9500000476837158, 16.969999313354492)"></path></g> </g></g> <g fill-rule="" class="tp-slogan iconsvg-slogansvg" fill="#e9cdb3" transform="translate(5.620002746582031,23.330001831054688)"><rect width="0"></rect> <rect x="169.91000366210938" width="0"></rect> <g transform="translate(0,0)"><g transform="scale(1)"><path d="M1.08-7.87L1.08 0L3.10 0C3.69 0 4.21-0.09 4.67-0.27C5.12-0.45 5.51-0.71 5.82-1.05C6.13-1.39 6.37-1.81 6.53-2.30C6.69-2.79 6.77-3.35 6.77-3.97C6.77-5.23 6.45-6.19 5.82-6.86C5.19-7.54 4.26-7.87 3.05-7.87ZM2.98-0.82L2.08-0.82L2.08-7.06L2.98-7.06C3.90-7.06 4.59-6.79 5.05-6.26C5.51-5.74 5.74-4.97 5.74-3.97C5.74-2.97 5.51-2.20 5.05-1.64C4.59-1.09 3.90-0.82 2.98-0.82ZM8.46-7.87L8.46 0L13.12 0L13.12-0.85L9.46-0.85L9.46-3.71L12.44-3.71L12.44-4.56L9.46-4.56L9.46-7.03L13.00-7.03L13.00-7.87ZM14.78-7.87L14.78 0L15.78 0L15.78-7.87ZM17.94-7.87L17.94 0L18.89 0L18.89-4.12C18.89-4.53 18.87-4.95 18.85-5.36C18.82-5.77 18.79-6.18 18.76-6.58L18.80-6.58L19.66-4.96L22.51 0L23.54 0L23.54-7.87L22.60-7.87L22.60-3.80C22.60-3.39 22.61-2.97 22.64-2.54C22.67-2.11 22.69-1.70 22.72-1.30L22.67-1.30L21.82-2.93L18.97-7.87ZM28.13-7.87L28.13 0L29.05 0L29.05-4.33C29.05-4.68 29.04-5.07 29.00-5.50C28.97-5.92 28.94-6.31 28.92-6.66L28.97-6.66L29.59-4.91L31.12-0.79L31.68-0.79L33.19-4.91L33.83-6.66L33.88-6.66C33.84-6.31 33.81-5.92 33.79-5.50C33.76-5.07 33.74-4.68 33.74-4.33L33.74 0L34.69 0L34.69-7.87L33.52-7.87L32.00-3.65L31.45-2.04L31.40-2.04L30.83-3.65L29.30-7.87ZM40.20-3.20L37.84-3.20L38.21-4.40C38.35-4.84 38.49-5.28 38.62-5.72C38.74-6.15 38.87-6.60 38.99-7.06L39.04-7.06C39.16-6.60 39.29-6.15 39.42-5.72C39.55-5.28 39.68-4.84 39.83-4.40ZM40.45-2.40L41.20 0L42.26 0L39.60-7.87L38.47-7.87L35.81 0L36.83 0L37.58-2.40ZM44.53-7.03L44.53 0L45.54 0L45.54-7.03L47.92-7.03L47.92-7.87L42.16-7.87L42.16-7.03ZM48.59-3.94C48.59-3.30 48.67-2.72 48.85-2.21C49.02-1.71 49.26-1.28 49.57-0.93C49.87-0.58 50.24-0.32 50.66-0.13C51.08 0.05 51.54 0.14 52.03 0.14C52.54 0.14 52.98 0.04 53.38-0.16C53.77-0.36 54.12-0.64 54.43-1.00L53.87-1.61C53.61-1.33 53.34-1.11 53.06-0.96C52.77-0.81 52.44-0.73 52.06-0.73C51.68-0.73 51.34-0.81 51.04-0.96C50.74-1.11 50.49-1.33 50.28-1.61C50.07-1.89 49.91-2.23 49.79-2.62C49.68-3.02 49.62-3.46 49.62-3.96C49.62-4.45 49.68-4.89 49.80-5.28C49.92-5.67 50.09-6.01 50.30-6.28C50.52-6.56 50.78-6.77 51.08-6.92C51.39-7.07 51.73-7.14 52.10-7.14C52.44-7.14 52.73-7.07 52.99-6.94C53.24-6.81 53.47-6.63 53.68-6.41L54.24-7.04C54.01-7.30 53.71-7.53 53.35-7.72C52.99-7.92 52.57-8.02 52.09-8.02C51.59-8.02 51.12-7.92 50.69-7.73C50.27-7.55 49.90-7.28 49.58-6.92C49.27-6.57 49.03-6.14 48.85-5.64C48.68-5.14 48.59-4.57 48.59-3.94ZM55.90-7.87L55.90 0L56.89 0L56.89-3.71L60.55-3.71L60.55 0L61.56 0L61.56-7.87L60.55-7.87L60.55-4.57L56.89-4.57L56.89-7.87ZM69.49-3.20L67.13-3.20L67.50-4.40C67.64-4.84 67.78-5.28 67.91-5.72C68.04-6.15 68.16-6.60 68.28-7.06L68.33-7.06C68.46-6.60 68.58-6.15 68.71-5.72C68.84-5.28 68.98-4.84 69.12-4.40ZM69.74-2.40L70.49 0L71.56 0L68.89-7.87L67.76-7.87L65.10 0L66.12 0L66.88-2.40ZM72.46-7.87L72.46-3.25C72.46-2.62 72.53-2.09 72.67-1.66C72.82-1.22 73.01-0.87 73.27-0.61C73.52-0.34 73.82-0.15 74.17-0.03C74.51 0.09 74.89 0.14 75.29 0.14C75.69 0.14 76.06 0.09 76.40-0.03C76.75-0.15 77.05-0.34 77.30-0.61C77.55-0.87 77.75-1.22 77.89-1.66C78.04-2.09 78.11-2.62 78.11-3.25L78.11-7.87L77.15-7.87L77.15-3.23C77.15-2.76 77.10-2.36 77.00-2.04C76.91-1.72 76.78-1.46 76.61-1.27C76.44-1.08 76.24-0.94 76.02-0.86C75.80-0.77 75.55-0.73 75.29-0.73C75.03-0.73 74.79-0.77 74.57-0.86C74.34-0.94 74.15-1.08 73.99-1.27C73.82-1.46 73.69-1.72 73.60-2.04C73.50-2.36 73.45-2.76 73.45-3.23L73.45-7.87ZM80.14-1.72L79.54-1.02C79.88-0.66 80.29-0.38 80.76-0.17C81.23 0.04 81.74 0.14 82.30 0.14C82.71 0.14 83.08 0.09 83.41-0.03C83.74-0.15 84.02-0.31 84.25-0.51C84.48-0.71 84.66-0.95 84.79-1.22C84.91-1.50 84.97-1.79 84.97-2.10C84.97-2.39 84.93-2.64 84.85-2.86C84.76-3.08 84.65-3.27 84.50-3.44C84.36-3.60 84.19-3.75 83.99-3.87C83.79-3.99 83.58-4.10 83.35-4.20L82.24-4.68C82.08-4.74 81.92-4.81 81.77-4.89C81.62-4.97 81.48-5.05 81.35-5.15C81.22-5.25 81.12-5.37 81.04-5.50C80.97-5.63 80.93-5.80 80.93-5.99C80.93-6.35 81.06-6.63 81.33-6.83C81.60-7.04 81.95-7.14 82.39-7.14C82.76-7.14 83.09-7.07 83.38-6.94C83.67-6.81 83.94-6.63 84.18-6.40L84.72-7.04C84.44-7.33 84.10-7.57 83.70-7.75C83.30-7.93 82.86-8.02 82.39-8.02C82.03-8.02 81.70-7.96 81.40-7.86C81.10-7.76 80.84-7.61 80.62-7.42C80.40-7.23 80.23-7.01 80.11-6.76C79.98-6.50 79.92-6.22 79.92-5.93C79.92-5.64 79.97-5.39 80.06-5.17C80.16-4.95 80.28-4.76 80.44-4.60C80.59-4.44 80.76-4.30 80.95-4.19C81.14-4.08 81.33-3.98 81.52-3.90L82.64-3.41C82.83-3.32 83.00-3.24 83.16-3.16C83.32-3.08 83.46-2.99 83.57-2.89C83.69-2.79 83.78-2.67 83.85-2.53C83.92-2.39 83.95-2.22 83.95-2.02C83.95-1.63 83.81-1.32 83.52-1.09C83.23-0.85 82.83-0.73 82.31-0.73C81.90-0.73 81.51-0.82 81.13-1.00C80.75-1.18 80.42-1.42 80.14-1.72ZM88.94-7.87L88.94 0L90.96 0C91.55 0 92.08-0.09 92.53-0.27C92.99-0.45 93.37-0.71 93.68-1.05C94.00-1.39 94.23-1.81 94.39-2.30C94.55-2.79 94.63-3.35 94.63-3.97C94.63-5.23 94.32-6.19 93.68-6.86C93.05-7.54 92.13-7.87 90.91-7.87ZM90.84-0.82L89.94-0.82L89.94-7.06L90.84-7.06C91.76-7.06 92.45-6.79 92.91-6.26C93.37-5.74 93.60-4.97 93.60-3.97C93.60-2.97 93.37-2.20 92.91-1.64C92.45-1.09 91.76-0.82 90.84-0.82ZM96.32-7.87L96.32 0L100.98 0L100.98-0.85L97.32-0.85L97.32-3.71L100.31-3.71L100.31-4.56L97.32-4.56L97.32-7.03L100.86-7.03L100.86-7.87ZM102.65-7.87L102.65 0L103.57 0L103.57-4.33C103.57-4.68 103.56-5.07 103.52-5.50C103.49-5.92 103.46-6.31 103.44-6.66L103.49-6.66L104.11-4.91L105.64-0.79L106.20-0.79L107.71-4.91L108.35-6.66L108.40-6.66C108.36-6.31 108.33-5.92 108.31-5.50C108.28-5.07 108.26-4.68 108.26-4.33L108.26 0L109.21 0L109.21-7.87L108.04-7.87L106.52-3.65L105.97-2.04L105.92-2.04L105.35-3.65L103.82-7.87ZM116.70 0.14C117.20 0.14 117.65 0.05 118.06-0.14C118.47-0.34 118.83-0.61 119.13-0.97C119.43-1.32 119.66-1.75 119.83-2.26C119.99-2.77 120.07-3.34 120.07-3.97C120.07-4.60 119.99-5.16 119.83-5.66C119.66-6.16 119.43-6.58 119.13-6.93C118.83-7.28 118.47-7.55 118.06-7.73C117.65-7.92 117.20-8.02 116.70-8.02C116.20-8.02 115.75-7.92 115.34-7.74C114.93-7.56 114.57-7.29 114.28-6.94C113.98-6.59 113.75-6.17 113.59-5.67C113.42-5.17 113.34-4.60 113.34-3.97C113.34-3.34 113.42-2.77 113.59-2.26C113.75-1.75 113.98-1.32 114.28-0.97C114.57-0.61 114.93-0.34 115.34-0.14C115.75 0.05 116.20 0.14 116.70 0.14ZM116.70-0.73C116.35-0.73 116.03-0.81 115.75-0.96C115.46-1.11 115.22-1.33 115.01-1.61C114.81-1.90 114.65-2.24 114.54-2.63C114.43-3.03 114.37-3.48 114.37-3.97C114.37-4.46 114.43-4.90 114.54-5.29C114.65-5.68 114.81-6.02 115.01-6.29C115.22-6.56 115.46-6.77 115.75-6.92C116.03-7.07 116.35-7.14 116.70-7.14C117.05-7.14 117.37-7.07 117.65-6.92C117.94-6.77 118.18-6.56 118.39-6.29C118.59-6.02 118.75-5.68 118.86-5.29C118.97-4.90 119.03-4.46 119.03-3.97C119.03-3.48 118.97-3.03 118.86-2.63C118.75-2.24 118.59-1.90 118.39-1.61C118.18-1.33 117.94-1.11 117.65-0.96C117.37-0.81 117.05-0.73 116.70-0.73ZM121.76-7.87L121.76 0L124.27 0C124.71 0 125.12-0.05 125.48-0.14C125.85-0.24 126.17-0.38 126.43-0.58C126.70-0.77 126.90-1.01 127.04-1.30C127.19-1.58 127.26-1.92 127.26-2.30C127.26-2.85 127.10-3.28 126.78-3.59C126.46-3.90 126.01-4.10 125.44-4.19L125.44-4.24C125.90-4.36 126.24-4.57 126.47-4.89C126.69-5.21 126.80-5.56 126.80-5.95C126.80-6.30 126.74-6.59 126.61-6.83C126.47-7.08 126.29-7.28 126.05-7.43C125.82-7.58 125.53-7.69 125.20-7.76C124.87-7.84 124.50-7.87 124.10-7.87ZM123.92-4.51L122.76-4.51L122.76-7.08L123.97-7.08C124.59-7.08 125.05-6.99 125.36-6.80C125.67-6.61 125.82-6.30 125.82-5.87C125.82-5.43 125.67-5.09 125.38-4.86C125.09-4.63 124.60-4.51 123.92-4.51ZM124.13-0.79L122.76-0.79L122.76-3.77L124.13-3.77C124.82-3.77 125.36-3.65 125.72-3.43C126.09-3.20 126.28-2.84 126.28-2.35C126.28-1.82 126.09-1.42 125.71-1.17C125.34-0.92 124.81-0.79 124.13-0.79ZM128.82-7.87L128.82 0L133.48 0L133.48-0.85L129.82-0.85L129.82-3.71L132.80-3.71L132.80-4.56L129.82-4.56L129.82-7.03L133.36-7.03L133.36-7.87ZM136.14-4.14L136.14-7.07L137.46-7.07C138.08-7.07 138.55-6.96 138.88-6.76C139.20-6.55 139.37-6.18 139.37-5.66C139.37-5.15 139.20-4.77 138.88-4.52C138.55-4.27 138.08-4.14 137.46-4.14ZM139.46 0L140.59 0L138.60-3.43C139.14-3.57 139.56-3.82 139.88-4.19C140.20-4.56 140.36-5.05 140.36-5.66C140.36-6.07 140.30-6.42 140.16-6.70C140.02-6.98 139.83-7.20 139.59-7.38C139.35-7.56 139.05-7.68 138.71-7.76C138.37-7.83 138.00-7.87 137.60-7.87L135.14-7.87L135.14 0L136.14 0L136.14-3.32L137.57-3.32ZM142.12-7.87L142.12 0L144.62 0C145.06 0 145.47-0.05 145.84-0.14C146.20-0.24 146.52-0.38 146.78-0.58C147.05-0.77 147.25-1.01 147.40-1.30C147.54-1.58 147.61-1.92 147.61-2.30C147.61-2.85 147.45-3.28 147.13-3.59C146.81-3.90 146.36-4.10 145.79-4.19L145.79-4.24C146.25-4.36 146.60-4.57 146.82-4.89C147.04-5.21 147.16-5.56 147.16-5.95C147.16-6.30 147.09-6.59 146.96-6.83C146.83-7.08 146.64-7.28 146.41-7.43C146.17-7.58 145.89-7.69 145.55-7.76C145.22-7.84 144.86-7.87 144.46-7.87ZM144.28-4.51L143.11-4.51L143.11-7.08L144.32-7.08C144.94-7.08 145.40-6.99 145.71-6.80C146.02-6.61 146.17-6.30 146.17-5.87C146.17-5.43 146.03-5.09 145.73-4.86C145.44-4.63 144.96-4.51 144.28-4.51ZM144.48-0.79L143.11-0.79L143.11-3.77L144.48-3.77C145.18-3.77 145.71-3.65 146.08-3.43C146.44-3.20 146.63-2.84 146.63-2.35C146.63-1.82 146.44-1.42 146.06-1.17C145.69-0.92 145.16-0.79 144.48-0.79ZM149.17-7.87L149.17 0L153.83 0L153.83-0.85L150.17-0.85L150.17-3.71L153.16-3.71L153.16-4.56L150.17-4.56L150.17-7.03L153.71-7.03L153.71-7.87ZM156.49-4.14L156.49-7.07L157.81-7.07C158.43-7.07 158.90-6.96 159.23-6.76C159.56-6.55 159.72-6.18 159.72-5.66C159.72-5.15 159.56-4.77 159.23-4.52C158.90-4.27 158.43-4.14 157.81-4.14ZM159.82 0L160.94 0L158.95-3.43C159.49-3.57 159.92-3.82 160.24-4.19C160.56-4.56 160.72-5.05 160.72-5.66C160.72-6.07 160.65-6.42 160.51-6.70C160.38-6.98 160.19-7.20 159.94-7.38C159.70-7.56 159.41-7.68 159.07-7.76C158.73-7.83 158.36-7.87 157.96-7.87L155.50-7.87L155.50 0L156.49 0L156.49-3.32L157.92-3.32ZM162.01-3.94C162.01-3.30 162.10-2.72 162.28-2.21C162.45-1.71 162.70-1.28 163.01-0.93C163.32-0.58 163.69-0.32 164.12-0.13C164.56 0.05 165.03 0.14 165.55 0.14C166.08 0.14 166.55 0.06 166.97-0.11C167.39-0.29 167.73-0.50 167.99-0.77L167.99-4.08L165.41-4.08L165.41-3.25L167.08-3.25L167.08-1.20C166.92-1.06 166.71-0.94 166.46-0.86C166.21-0.77 165.94-0.73 165.66-0.73C165.24-0.73 164.86-0.81 164.54-0.96C164.21-1.11 163.94-1.33 163.72-1.61C163.50-1.89 163.33-2.23 163.22-2.62C163.10-3.02 163.04-3.46 163.04-3.96C163.04-4.45 163.11-4.89 163.23-5.28C163.35-5.67 163.53-6.01 163.75-6.28C163.98-6.56 164.25-6.77 164.57-6.92C164.89-7.07 165.25-7.14 165.65-7.14C166.05-7.14 166.38-7.07 166.64-6.93C166.90-6.79 167.13-6.62 167.33-6.41L167.89-7.04C167.66-7.28 167.36-7.51 167.00-7.71C166.63-7.91 166.18-8.02 165.64-8.02C165.11-8.02 164.62-7.92 164.18-7.73C163.74-7.55 163.36-7.28 163.04-6.92C162.71-6.57 162.46-6.14 162.28-5.64C162.10-5.14 162.01-4.57 162.01-3.94Z" transform="translate(-1.08, 8.016)"></path></g></g></g></g></g><defs v-gra="od"></defs></g></svg>